<?xml version="1.0" encoding="utf-8"?>
<!-- Generator: Adobe Illustrator 22.0.1, SVG Export Plug-In . SVG Version: 6.00 Build 0)  -->
<svg version="1.1" id="Camada_1" xmlns="http://www.w3.org/2000/svg" xmlns:xlink="http://www.w3.org/1999/xlink" x="0px" y="0px"
	 viewBox="0 0 130.9 73.9" style="enable-background:new 0 0 130.9 73.9;" xml:space="preserve">
<style type="text/css">
	.st0{fill:#FFFFFF;}
	.st1{fill:#8FCCF2;}
</style>
<g>
	<path class="st0" d="M30.1,18c-5,0.4-7.4,1.8-8.6,2.5c-1.6,1-2,2-1.7,3.6c0.4,1.5,2.2,1.6,3.9,1.1c3.4-1.1,4.1-1.7,6.5-2
		c3.6-0.5,5.8,1.2,5.9,3.8c0.1,6.9-9.8,6.6-9.8,6.6s0-1.6-0.1-2.6c-0.3-3.3-1.3-3.9-3.1-3.8c-2.2,0.1-2.9,2.3-2.9,4
		c0,1.8-0.1,16.9,0,19c0.1,1.7,0.8,2.6,2.4,3.3c1.5,0.7,4.5,1.7,8.9,1.6c10.2-0.3,13.1-7.1,12.9-12.3c-0.2-7.4-8.1-8-8.1-8
		s5.6-2,4.9-8.8C40.8,20.3,35.2,17.6,30.1,18z M27.3,49.3c-0.7-0.2-0.9-0.7-0.9-1.5c0-0.8,0.1-5.9,0.1-7.4c0-0.9,0.5-1.3,1.1-1.5
		c1.1-0.3,2.7-0.5,4.5-0.6c3.2-0.2,7,1.8,7,5.6c0,3.3-2.4,5.5-6.4,6.1C30.1,50.3,28.4,49.7,27.3,49.3z"/>
	<path class="st0" d="M87.1,49c-0.4-3.7-8.4-10.5-8.9-15.3c-0.3-3-2.3-3-3.9-2.8c-1.5,0.2-1.5,2.2-2.2,5.8
		c-0.9,4.9-2.9,12.4-5.9,11.9c-0.8-0.1-1.1-0.8-1.1-1.5c0-1.7,0.1-4.3,0.2-8.8c0.1-4.3-0.9-4.7-2.1-4.8c-1.3-0.1-2.9,0.5-2.9,3.7
		c0,3.1,0,8-0.9,9.9c-0.9,1.9-2.9,2.9-4.3,2.9c-1.2,0-2.4-0.8-2.4-2.8c0-3.4,0.1-6.1,0.2-8.8c0.1-1.7,0.1-4-2.4-4.1
		c-2.1-0.3-3.8,0.7-4.7,1.3c-1.1,0.7-0.6,1.8,0.4,1.6c1.1-0.2,1.3,1,1.3,1.6c-0.1,2.5-0.3,5.9-0.4,8.9c-0.1,3.4,1.6,7.3,5.9,7.7
		c4.3,0.3,7.4-3.2,7.4-3.2c0.9,1.5,2.5,2.4,4.8,2.4c9,0.3,10.8-13.8,10.8-13.8c1.6,3,5.9,6.8,6,9c0,1.8-1.6,2.7-2.6,2.8
		c-1.8,0.3-4-0.1-3.9,0.9c0,1,2.4,2.5,4.9,2.4C85,55.8,87.4,52.6,87.1,49z"/>
	<g>
		<path class="st1" d="M95.8,31.1c1.7-2.3,4.9-5.9,5.8-7.1c0.5-0.7,2.2-1.9,4.3-0.4c0.8,0.6,1.5,2.4,0.3,3.7
			c-1.3,1.5-7.4,4.5-8.5,5.2c-0.5,0.3-1.1,0.5-1.6,0.1C95.7,32.3,95.6,31.5,95.8,31.1z"/>
		<path class="st0" d="M113,47.7c-0.2-0.2-0.5-0.6-1.2-0.1c-0.7,0.5-1.1,1-2,1.5c-1.5,0.6-3-1.2-3-2.8c0-1.7,0.2-4.1,0.1-8.3
			c-0.1-4.1-1-4.6-2.8-4.6c-1.9,0.1-2.3,0.8-2.4,5.6c-0.1,6.6,0,7.1-1,8.8c-0.6,1-1.7,1.8-3.3,1.9c-1.5,0.1-2.7-0.9-2.9-2.3
			c-0.2-1.7,0-6.6-0.2-9.2c-0.3-2.8-1.5-3.6-2.8-3.8c-2-0.1-3.2,0.8-4.1,1.4c-1.1,0.7-0.6,1.8,0.4,1.6c1.2-0.3,1.4,1.2,1.4,1.7
			c0,2.4-0.1,6.7,0.1,9.9c0.2,3.7,3.4,6.3,7.3,6.1c4-0.2,5.6-2.2,7-3.8c0.2-0.2,0.3-0.4,0.5-0.4c0.3,0,0.4,0.3,0.5,0.5
			c0.9,1.5,2.5,1.9,3.7,1.7c1.9-0.3,2.6-0.8,3.6-2C113.3,49.4,113.2,47.9,113,47.7z"/>
	</g>
</g>
</svg>
